<svg viewBox="0 0 320 100" xmlns="http://www.w3.org/2000/svg" fill-rule="evenodd" clip-rule="evenodd" stroke-linejoin="round" stroke-miterlimit="1.414">
    <path d="M104.9 96.5c-.1 0-.1-7.1-.1-15.6V65.3h3.2v3.6l.4-.8c.5-1 1.9-2.3 2.9-2.8 1.1-.5 3.7-.5 5.1 0 1.2.5 2.7 1.9 3.3 3.3 1.4 3.1 1.8 8.5.7 12.5-.7 2.8-2.2 5-4.1 5.8-.8.4-1.1.4-2.7.4s-1.9 0-2.7-.4c-1.1-.5-2-1.4-2.6-2.5l-.3-.9v13.2h-1.5c-.8 0-1.5 0-1.6-.1v-.1zm9.4-12c1.8-.9 2.8-3.1 3.1-7.2.4-4.7-.6-8.3-2.5-9.4-.8-.5-2-.6-2.9-.4-1.6.4-3.2 2.8-3.8 5.5-.6 2.9-.2 7 .9 9.1.5.9 1.6 2 2.3 2.4.8.4 2.2.4 2.9 0zM10.1 87c-4.2-1.1-6.8-4.6-7.8-10.8-.3-2-.4-7.8-.1-9.7.7-4.3 2.2-7.4 4.4-9.3 2.1-1.8 5.7-2.5 8.9-1.9 4.6.9 7.5 4.7 8.4 10.8.8 5.8.2 12.1-1.6 15.8-1 2-2.6 3.6-4.3 4.5-1.9 1-5.5 1.3-7.8.6h-.1zm5.6-3.1c1.7-.8 3.1-2.6 3.8-5.1 1.2-4 1.2-11.4 0-15.3-.8-2.4-2-4.1-3.6-4.9-.8-.4-1.2-.4-2.5-.5-2.2-.1-3.2.3-4.5 1.6-1.5 1.5-2.3 3.6-2.8 6.9-.3 1.9-.2 7.7.1 9.6.8 4.8 2.6 7.4 5.5 8.1 1.1.3 2.9.1 4-.4zm24.1 3.2c-2.5-.6-4.1-2.1-5.1-4.8l-.4-1.3V55.5h3v13.4l.5-.9c1.1-1.9 2.7-3 4.9-3.2 3.1-.2 5.4 1.2 6.8 4 1.8 3.7 2 10 .4 13.7-1 2.4-2.8 4-5.2 4.6-1.1.3-3.8.3-4.9 0zm4.7-2.9c1-.6 1.9-1.9 2.4-3.5.4-1.2.4-1.4.4-4.5 0-2.9 0-3.3-.4-4.5-.7-2.4-1.7-3.7-3.1-4.2-2.7-.9-5 1.1-6.1 5.3-.3 1.2-.4 1.8-.4 4.1 0 3.6.5 5.4 1.9 6.8.9.8 1.6 1.1 3.1 1 1 0 1.4-.1 2-.5h.2zm22.9 2.9c-4.5-1-7.1-4.6-7.5-10.1-.5-6.7 1.8-11 6.2-12 3-.6 6 .1 7.6 1.9 1.3 1.4 1.9 3.1 2.1 5.8l.1 1.4H63.4v1.4c0 1.9.4 3.6 1.1 5.1.9 1.8 1.8 2.8 3.3 3.5 1.1.6 1.3.6 3.1.7 1.3 0 2.2 0 3-.2.6-.1 1.2-.3 1.2-.3.1 0 .2.6.2 1.3v1.3l-.8.2c-1.3.3-5.9.4-7.1.1v-.1zM72.2 71c0-.6-.4-1.6-1-2.3-1-1.1-2.8-1.6-4.4-1.1-1.4.4-2.6 1.8-3.1 3.5l-.1.4h8.6V71zm79.9 16.1c-1.1-.4-1.9-.9-2.4-1.7-.8-1.2-1-1.9-1-3.7 0-1.5.1-1.8.4-2.5 1.2-2.5 4.6-4.1 9.3-4.4 1.3-.1 2.4-.1 2.5-.1.2 0 .2-.4.1-2-.1-2.7-.3-3.2-1.2-4.1-.9-.9-1.9-1.2-3.5-1.1-2 .2-3.2 1-3.6 2.6l-.2.7h-1.7c-1.6 0-1.7 0-1.7-.4-.1-.6.4-2 1-2.9.7-1 2-1.9 3.4-2.3.9-.3 1.5-.4 3.4-.4s2.4.1 3.3.4c1.4.5 2.5 1.3 3 2.4.9 1.6.9 2.2.9 11.1v8.1h-3v-2.6l-.9.9c-1.6 1.6-3.4 2.2-5.8 2.2-.9 0-1.7-.1-2.2-.3l-.1.1zm4.8-2.6c2.2-.8 3.8-3.2 4-6.1l.1-1.2h-1.5c-4.4 0-7.4 1.8-7.4 4.5 0 2.6 2.2 3.8 4.9 2.8h-.1zm-71-8.4V65.3h3.2v4.2l.4-.8c.7-1.3 1.7-2.4 3-3 1.1-.5 2.4-.9 3.3-.9h.5v3.4l-1 .1c-1.3.1-2.8.9-3.8 1.8-.4.4-1 1.3-1.4 2.1-.9 2-1 2.8-1 9.2v5.5h-3.2V76.1zm46.6 1.3v-9.5h-3.6v-2.6h3.4l.1-2.3c.1-1.3.2-2.7.3-3.1.9-3.3 3.9-4.9 8.4-4.4.9.1 1.7.2 1.8.3.2.1.2.4.2 1.4v1.3s-.4-.1-.9-.2-1.5-.2-2.3-.2c-1.2 0-1.6.1-2.3.4-1.6.7-2.1 2-2.1 4.9v1.9h6.2v2.6h-6.2v19h-3.2l.2-9.5zm43.5-6.2V55.5h3.2v31.4H176V71.2zm13.1 14.4c0-1.2 0-1.3.7-2.3.4-.5 2.3-3.4 4.4-6.4 2-2.9 4.2-6.2 4.9-7.2l1.3-1.8H190v-2.6h14.2v1.3c0 1.3 0 1.4-.6 2.2-.6.8-2.8 4-8.4 12.2l-2.2 3.2 11.6.2v2.4h-15.5v-1.2zm-74.3-43c-4.7-.9-7.3-4-7.9-9.7-.5-4.2.6-8.5 2.6-10.5 1.7-1.7 4.2-2.4 7-2.1 3.9.5 6.3 3.5 6.3 7.9v1.3h-12.4V31c.1 4 1.8 7.2 4.4 8.5 1.9.9 4.5 1 7.2.2.3-.1.3.1.3 1.2v1.3l-.6.2c-1.8.5-4.9.6-6.8.2h-.1zm4.3-16.4c-.2-1.4-1.3-2.8-2.6-3.2-.8-.3-2.9-.1-3.6.2-1 .5-2.1 1.9-2.4 3.2l-.1.4h8.8l-.1-.6zm-39.6.5V11h4.9c5.4 0 6.4.1 8.2 1 2.3 1.2 3.7 3.8 3.7 6.7 0 2.9-1.4 5.4-3.7 6.6-.7.4-.8.5-.6.6 2.1.7 3.2 1.4 4.1 2.5 1.2 1.5 1.7 3.5 1.6 6.1-.2 3.8-1.8 6-5.2 7.2-1.7.6-3.5.8-8.4.8h-4.6V26.7zm10.3 12.4c2.2-.6 3.6-1.7 4.1-3.6.9-2.9-.2-5.8-2.5-7.1-1.4-.7-2.4-.9-5.5-.9H83v11.8h2.9c2.1 0 3.2-.1 3.8-.2h.1zm-.6-14.9c2.5-.8 3.5-2.4 3.5-5.3 0-1.8-.2-2.4-1.1-3.3-1.1-1.3-2.7-1.7-6.4-1.7H83v10.6l2.8-.1c1.6-.1 3.1-.2 3.3-.3l.1.1zm41.5 16.9v-1.3l4-5.9c2.2-3.2 4.7-6.9 5.6-8.1.9-1.2 1.6-2.3 1.6-2.4 0-.1-2.3-.1-5.2-.1h-5.2v-2.5h14.2v2.6l-.9 1.3c-5.4 7.9-10.1 14.8-10.1 15 0 .1 2 .2 5.8.2h5.8v2.6h-15.6v-1.4zm25.6-9.5V20.8h3v21.6h-3V31.6zm15.2 0V20.8h3v2c0 1.1.1 2 .1 2 .1 0 .3-.3.4-.7.5-1 2-2.5 3-3 .9-.4 1.6-.7 3.1-.9l.7-.1v3.2l-1.1.2c-2.3.4-4 1.7-5 3.9-1 2.1-1.1 2.9-1.2 9.2l-.1 5.6h-3l.1-10.6zm18.9-4.9V11h3v9.4c0 5.8.1 9.4.2 9.3.1 0 3.6-4.2 6.6-7.9l.8-1h1.9c1.8 0 1.9 0 1.7.3-.4.5-7.3 9-7.4 9.1-.1.1 1.8 2.8 4.2 6.1 2.4 3.3 4.3 6 4.3 6s-.8.1-1.9.1H202l-4.2-5.8c-2.3-3.2-4.2-5.8-4.3-5.8-.1 0-.1 2.6-.1 5.8v5.8h-3V26.7zM155.8 13v-2h4v4h-4v-2z" fill-rule="nonzero"/>
    <path d="M274 8.5V3.8h-40.2v40.1h40.1V29.3c-3 3.5-8.1 6.5-12.3 9.7-9.8-6.7-19.3-13.5-18.7-22.7.6-4.1 2.3-7.7 8.9-8.6 5.1-.4 7.5 3.2 9.6 7 2.1-3.4 4-7 9.6-6.8.7.1 1.1.1 3 .5v.1z" fill="none"/>
    <path d="M274 8.5V3.8h-40.2v40.1h40.1V29.3c-3 3.5-8.1 6.5-12.3 9.7-9.8-6.7-18.8-12.3-18.7-22.7.1-4.2 4.2-8.5 8.9-8.6 5.3-.1 7.5 3.2 9.6 7 2.1-3.4 4-6.7 9.6-6.8.8 0 1.1.1 3 .5v.1z" fill="#353535"/>
    <path d="M272.5 6.9V2.2h-40.2v40.1h40.1V27.7c-3 3.5-8.1 6.5-12.3 9.7-9.8-6.7-18.8-12.3-18.7-22.7.1-4.2 4.2-8.5 8.9-8.6 5.3-.1 7.5 3.2 9.6 7 2.1-3.4 4-6.7 9.6-6.8.8 0 1.1.1 3 .5v.1z" fill="#ed6639"/>
    <path d="M278 43.7l-.1-40.1 40.2.1.1 40h-29.1l16.2-5 7.9-24.6-24.8 8.1-7.4 21.4-3 .1z" fill="#353535"/>
    <path d="M276.5 42.2l-.1-40.1 40.2.1.1 40h-29.1l16.2-5 7.9-24.6-24.8 8.1-7.4 21.4-3 .1z" fill="#00a3e4"/>
    <path d="M277.9 87.6h12.3l.1-11.5 5.3-20.5.3-.3.3.3 5 19.1.5.6.6-.6 4.5-18.9.4-.5.4.4 5.3 20.3.1 11.5h5.1V47.6h-40.2v40z" fill="#353535"/>
    <path d="M276.5 86.1h12.3l.1-11.5 5.3-20.5.3-.3.3.3 5 19.1.5.6.6-.6 4.5-18.9.4-.5.4.4 5.3 20.3.1 11.5h5.1V46.1h-40.2v40z" fill="#ffd527"/>
    <path d="M233.7 47.6h40.1v40.1h-40.1v-3L258.9 58l-.8-.3-19.2 17.2c-1.4-1.7-2.9-3.1-3.2-6-.6-5.4 1.3-10.1 7.6-13.2 6.1-3 15.1-1.9 23.1-2.1-.7 2.2-1.2 3.7-1.5 5.2-2.1 10.9-2 10.5-3.1 13.9-2 5.8-5.9 8.9-10.8 9-3.1 0-6.4-.7-12.1-6.9l-5.2 3.3V47.6z" fill="#353535"/>
    <path d="M232.2 46h40.1v40.1h-40.1v-3l26.2-25.4-.8-.3-20.2 15.9c-1.4-1.7-2.9-3.1-3.2-6-.6-5.4 1.3-10.1 7.6-13.2 6.1-3 15.1-1.9 23.1-2.1-.7 2.2-1.2 3.7-1.5 5.2-2.1 10.9-2 10.5-3.1 13.9-2 5.8-5.9 8.9-10.8 9-3.1 0-6.4-.7-12.1-6.9l-5.2 3.3V46z" fill="#73c06e"/>
</svg>
