<?xml version="1.0" encoding="UTF-8"?>
<svg xmlns="http://www.w3.org/2000/svg" xmlns:xlink="http://www.w3.org/1999/xlink" width="500px" height="157px" viewBox="0 0 502 157" version="1.1">
<g id="surface1">
<path style=" stroke:none;fill-rule:nonzero;fill:rgb(0%,0%,0%);fill-opacity:1;" d="M 164.5625 151.503906 C 164.40625 151.503906 164.40625 140.359375 164.40625 127.011719 L 164.40625 102.519531 L 169.425781 102.519531 L 169.425781 108.171875 L 170.050781 106.917969 C 170.835938 105.347656 173.03125 103.304688 174.601562 102.519531 C 176.328125 101.734375 180.40625 101.734375 182.601562 102.519531 C 184.484375 103.304688 186.839844 105.503906 187.78125 107.703125 C 189.976562 112.570312 190.601562 121.046875 188.878906 127.328125 C 187.78125 131.722656 185.425781 135.175781 182.445312 136.433594 C 181.191406 137.0625 180.71875 137.0625 178.210938 137.0625 C 175.699219 137.0625 175.230469 137.0625 173.972656 136.433594 C 172.25 135.648438 170.835938 134.234375 169.894531 132.507812 L 169.425781 131.09375 L 169.425781 151.820312 L 167.070312 151.820312 C 165.816406 151.820312 164.71875 151.820312 164.5625 151.660156 Z M 179.308594 132.664062 C 182.132812 131.253906 183.699219 127.796875 184.171875 121.359375 C 184.796875 113.980469 183.230469 108.328125 180.25 106.601562 C 178.996094 105.816406 177.113281 105.660156 175.699219 105.976562 C 173.191406 106.601562 170.679688 110.371094 169.738281 114.609375 C 168.796875 119.164062 169.425781 125.601562 171.152344 128.898438 C 171.933594 130.308594 173.660156 132.035156 174.757812 132.664062 C 176.015625 133.292969 178.210938 133.292969 179.308594 132.664062 Z M 15.84375 136.589844 C 9.253906 134.863281 5.175781 129.367188 3.609375 119.632812 C 3.136719 116.492188 2.980469 107.386719 3.453125 104.40625 C 4.550781 97.652344 6.902344 92.785156 10.355469 89.804688 C 13.648438 86.976562 19.296875 85.878906 24.316406 86.820312 C 31.53125 88.234375 36.082031 94.199219 37.492188 103.777344 C 38.75 112.882812 37.808594 122.773438 34.984375 128.582031 C 33.414062 131.722656 30.90625 134.234375 28.238281 135.648438 C 25.257812 137.21875 19.609375 137.6875 16 136.589844 Z M 24.628906 131.722656 C 27.296875 130.46875 29.492188 127.640625 30.589844 123.714844 C 32.472656 117.4375 32.472656 105.816406 30.589844 99.695312 C 29.335938 95.925781 27.453125 93.257812 24.941406 92.003906 C 23.6875 91.375 23.0625 91.375 21.019531 91.21875 C 17.570312 91.058594 16 91.6875 13.960938 93.730469 C 11.609375 96.085938 10.355469 99.382812 9.570312 104.5625 C 9.097656 107.546875 9.253906 116.652344 9.726562 119.632812 C 10.980469 127.171875 13.804688 131.253906 18.355469 132.351562 C 20.078125 132.820312 22.902344 132.507812 24.628906 131.722656 Z M 62.4375 136.746094 C 58.515625 135.804688 56.003906 133.449219 54.4375 129.210938 L 53.808594 127.171875 L 53.808594 87.136719 L 58.515625 87.136719 L 58.515625 108.171875 L 59.296875 106.761719 C 61.023438 103.777344 63.535156 102.050781 66.984375 101.734375 C 71.847656 101.421875 75.457031 103.621094 77.652344 108.015625 C 80.476562 113.824219 80.789062 123.714844 78.28125 129.523438 C 76.710938 133.292969 73.886719 135.804688 70.125 136.746094 C 68.398438 137.21875 64.160156 137.21875 62.4375 136.746094 Z M 69.808594 132.195312 C 71.378906 131.253906 72.789062 129.210938 73.574219 126.699219 C 74.203125 124.816406 74.203125 124.5 74.203125 119.632812 C 74.203125 115.082031 74.203125 114.453125 73.574219 112.570312 C 72.476562 108.800781 70.90625 106.761719 68.710938 105.976562 C 64.476562 104.5625 60.867188 107.703125 59.140625 114.296875 C 58.671875 116.179688 58.515625 117.121094 58.515625 120.734375 C 58.515625 126.386719 59.296875 129.210938 61.496094 131.410156 C 62.90625 132.664062 64.003906 133.136719 66.359375 132.980469 C 67.925781 132.980469 68.554688 132.820312 69.496094 132.195312 Z M 105.734375 136.746094 C 98.675781 135.175781 94.59375 129.523438 93.96875 120.890625 C 93.183594 110.371094 96.792969 103.621094 103.695312 102.050781 C 108.402344 101.109375 113.105469 102.207031 115.617188 105.03125 C 117.65625 107.230469 118.597656 109.898438 118.910156 114.140625 L 119.066406 116.335938 L 99.457031 116.335938 L 99.457031 118.535156 C 99.457031 121.519531 100.085938 124.1875 101.183594 126.542969 C 102.597656 129.367188 104.007812 130.9375 106.359375 132.035156 C 108.085938 132.980469 108.402344 132.980469 111.222656 133.136719 C 113.265625 133.136719 114.675781 133.136719 115.929688 132.820312 C 116.871094 132.664062 117.8125 132.351562 117.8125 132.351562 C 117.96875 132.351562 118.125 133.292969 118.125 134.390625 L 118.125 136.433594 L 116.871094 136.746094 C 114.832031 137.21875 107.617188 137.375 105.734375 136.902344 Z M 113.265625 111.46875 C 113.265625 110.527344 112.636719 108.957031 111.695312 107.859375 C 110.125 106.132812 107.300781 105.347656 104.792969 106.132812 C 102.597656 106.761719 100.714844 108.957031 99.929688 111.628906 L 99.773438 112.253906 L 113.265625 112.253906 Z M 238.605469 136.746094 C 236.882812 136.117188 235.625 135.335938 234.84375 134.078125 C 233.585938 132.195312 233.273438 131.09375 233.273438 128.269531 C 233.273438 125.914062 233.429688 125.441406 233.902344 124.34375 C 235.78125 120.417969 241.117188 117.90625 248.488281 117.4375 C 250.53125 117.277344 252.253906 117.277344 252.410156 117.277344 C 252.726562 117.277344 252.726562 116.652344 252.570312 114.140625 C 252.410156 109.898438 252.097656 109.113281 250.6875 107.703125 C 249.273438 106.289062 247.707031 105.816406 245.195312 105.976562 C 242.058594 106.289062 240.175781 107.546875 239.546875 110.058594 L 239.234375 111.15625 L 236.566406 111.15625 C 234.058594 111.15625 233.902344 111.15625 233.902344 110.527344 C 233.742188 109.585938 234.527344 107.386719 235.46875 105.976562 C 236.566406 104.40625 238.605469 102.992188 240.804688 102.363281 C 242.214844 101.894531 243.15625 101.734375 246.136719 101.734375 C 249.117188 101.734375 249.902344 101.894531 251.3125 102.363281 C 253.511719 103.148438 255.234375 104.40625 256.019531 106.132812 C 257.433594 108.644531 257.433594 109.585938 257.433594 123.558594 L 257.433594 136.277344 L 252.726562 136.277344 L 252.726562 132.195312 L 251.3125 133.605469 C 248.804688 136.117188 245.980469 137.0625 242.214844 137.0625 C 240.804688 137.0625 239.546875 136.902344 238.765625 136.589844 Z M 246.136719 132.664062 C 249.589844 131.410156 252.097656 127.640625 252.410156 123.089844 L 252.570312 121.203125 L 250.214844 121.203125 C 243.3125 121.203125 238.605469 124.03125 238.605469 128.269531 C 238.605469 132.351562 242.058594 134.234375 246.292969 132.664062 Z M 134.753906 119.476562 L 134.753906 102.519531 L 139.777344 102.519531 L 139.777344 109.113281 L 140.402344 107.859375 C 141.5 105.816406 143.070312 104.089844 145.109375 103.148438 C 146.835938 102.363281 148.875 101.734375 150.285156 101.734375 L 151.070312 101.734375 L 151.070312 107.074219 L 149.5 107.230469 C 147.460938 107.386719 145.109375 108.644531 143.539062 110.058594 C 142.914062 110.683594 141.972656 112.097656 141.34375 113.355469 C 139.933594 116.492188 139.777344 117.75 139.777344 127.796875 L 139.777344 136.433594 L 134.753906 136.433594 Z M 207.859375 121.519531 L 207.859375 106.601562 L 202.210938 106.601562 L 202.210938 102.519531 L 207.546875 102.519531 L 207.703125 98.910156 C 207.859375 96.867188 208.015625 94.671875 208.171875 94.042969 C 209.585938 88.863281 214.292969 86.351562 221.351562 87.136719 C 222.761719 87.292969 224.015625 87.449219 224.175781 87.605469 C 224.488281 87.761719 224.488281 88.234375 224.488281 89.804688 L 224.488281 91.84375 C 224.488281 91.84375 223.859375 91.6875 223.078125 91.53125 C 222.292969 91.375 220.722656 91.21875 219.46875 91.21875 C 217.585938 91.21875 216.957031 91.375 215.859375 91.84375 C 213.351562 92.945312 212.566406 94.984375 212.566406 99.539062 L 212.566406 102.519531 L 222.292969 102.519531 L 222.292969 106.601562 L 212.566406 106.601562 L 212.566406 136.433594 L 207.546875 136.433594 Z M 276.101562 111.785156 L 276.101562 87.136719 L 281.121094 87.136719 L 281.121094 136.433594 L 276.101562 136.433594 Z M 296.652344 134.390625 C 296.652344 132.507812 296.652344 132.351562 297.75 130.78125 C 298.375 129.996094 301.355469 125.441406 304.652344 120.734375 C 307.789062 116.179688 311.238281 111 312.339844 109.429688 L 314.378906 106.601562 L 298.0625 106.601562 L 298.0625 102.519531 L 320.339844 102.519531 L 320.339844 104.5625 C 320.339844 106.601562 320.339844 106.761719 319.398438 108.015625 C 318.457031 109.273438 315.003906 114.296875 306.21875 127.171875 L 302.769531 132.195312 L 320.964844 132.507812 L 320.964844 136.277344 L 296.652344 136.277344 Z M 180.09375 66.882812 C 172.71875 65.46875 168.640625 60.601562 167.699219 51.652344 C 166.914062 45.058594 168.640625 38.308594 171.777344 35.167969 C 174.445312 32.5 178.367188 31.398438 182.757812 31.871094 C 188.878906 32.65625 192.640625 37.367188 192.640625 44.273438 L 192.640625 46.316406 L 173.191406 46.316406 L 173.191406 48.671875 C 173.347656 54.949219 176.015625 59.972656 180.09375 62.015625 C 183.074219 63.429688 187.152344 63.585938 191.386719 62.328125 C 191.859375 62.171875 191.859375 62.484375 191.859375 64.214844 L 191.859375 66.253906 L 190.917969 66.566406 C 188.09375 67.351562 183.230469 67.511719 180.25 66.882812 Z M 186.839844 41.132812 C 186.523438 38.9375 184.796875 36.738281 182.757812 36.109375 C 181.503906 35.640625 178.210938 35.953125 177.113281 36.425781 C 175.542969 37.210938 173.816406 39.40625 173.347656 41.449219 L 173.191406 42.074219 L 186.996094 42.074219 Z M 124.714844 41.917969 L 124.714844 17.269531 L 132.402344 17.269531 C 140.875 17.269531 142.441406 17.425781 145.265625 18.839844 C 148.875 20.722656 151.070312 24.804688 151.070312 29.359375 C 151.070312 33.910156 148.875 37.835938 145.265625 39.722656 C 144.167969 40.347656 144.011719 40.507812 144.324219 40.664062 C 147.621094 41.761719 149.34375 42.859375 150.757812 44.589844 C 152.640625 46.941406 153.421875 50.082031 153.265625 54.164062 C 152.953125 60.132812 150.441406 63.585938 145.109375 65.46875 C 142.441406 66.410156 139.617188 66.726562 131.933594 66.726562 L 124.714844 66.726562 Z M 140.875 61.386719 C 144.324219 60.445312 146.519531 58.71875 147.304688 55.734375 C 148.71875 51.183594 146.992188 46.628906 143.382812 44.589844 C 141.1875 43.488281 139.617188 43.175781 134.753906 43.175781 L 130.207031 43.175781 L 130.207031 61.699219 L 134.753906 61.699219 C 138.050781 61.699219 139.777344 61.542969 140.71875 61.386719 Z M 139.933594 37.992188 C 143.855469 36.738281 145.421875 34.226562 145.421875 29.671875 C 145.421875 26.847656 145.109375 25.90625 143.699219 24.492188 C 141.972656 22.449219 139.460938 21.824219 133.65625 21.824219 L 130.207031 21.824219 L 130.207031 38.464844 L 134.597656 38.308594 C 137.109375 38.152344 139.460938 37.992188 139.777344 37.835938 Z M 205.035156 64.527344 L 205.035156 62.484375 L 211.3125 53.222656 C 214.761719 48.199219 218.683594 42.390625 220.09375 40.507812 C 221.507812 38.621094 222.605469 36.894531 222.605469 36.738281 C 222.605469 36.582031 218.996094 36.582031 214.449219 36.582031 L 206.289062 36.582031 L 206.289062 32.65625 L 228.566406 32.65625 L 228.566406 36.738281 L 227.15625 38.777344 C 218.683594 51.183594 211.3125 62.015625 211.3125 62.328125 C 211.3125 62.484375 214.449219 62.644531 220.410156 62.644531 L 229.507812 62.644531 L 229.507812 66.726562 L 205.035156 66.726562 Z M 245.195312 49.613281 L 245.195312 32.65625 L 249.902344 32.65625 L 249.902344 66.566406 L 245.195312 66.566406 Z M 269.039062 49.613281 L 269.039062 32.65625 L 273.746094 32.65625 L 273.746094 35.796875 C 273.746094 37.523438 273.902344 38.9375 273.902344 38.9375 C 274.0625 38.9375 274.375 38.464844 274.53125 37.835938 C 275.316406 36.265625 277.667969 33.910156 279.238281 33.128906 C 280.648438 32.5 281.746094 32.027344 284.101562 31.714844 L 285.199219 31.558594 L 285.199219 36.582031 L 283.472656 36.894531 C 279.863281 37.523438 277.199219 39.5625 275.628906 43.019531 C 274.0625 46.316406 273.902344 47.570312 273.746094 57.460938 L 273.589844 66.253906 L 268.882812 66.253906 Z M 298.691406 41.917969 L 298.691406 17.269531 L 303.394531 17.269531 L 303.394531 32.027344 C 303.394531 41.132812 303.554688 46.785156 303.710938 46.628906 C 303.867188 46.628906 309.359375 40.035156 314.0625 34.226562 L 315.320312 32.65625 L 318.300781 32.65625 C 321.125 32.65625 321.28125 32.65625 320.964844 33.128906 C 320.339844 33.910156 309.515625 47.257812 309.359375 47.414062 C 309.199219 47.570312 312.179688 51.808594 315.945312 56.992188 C 319.710938 62.171875 322.691406 66.410156 322.691406 66.410156 C 322.691406 66.410156 321.4375 66.566406 319.710938 66.566406 L 316.886719 66.566406 L 310.296875 57.460938 C 306.691406 52.4375 303.710938 48.355469 303.554688 48.355469 C 303.394531 48.355469 303.394531 52.4375 303.394531 57.460938 L 303.394531 66.566406 L 298.691406 66.566406 Z M 244.410156 20.410156 L 244.410156 17.269531 L 250.6875 17.269531 L 250.6875 23.550781 L 244.410156 23.550781 Z M 244.410156 20.410156 "/>
<path style=" stroke:none;fill-rule:evenodd;fill:rgb(20.784314%,20.784314%,20.784314%);fill-opacity:1;" d="M 429.835938 13.34375 L 429.835938 5.964844 L 366.773438 5.964844 L 366.773438 68.921875 L 429.679688 68.921875 L 429.679688 46 C 424.972656 51.496094 416.972656 56.207031 410.386719 61.230469 C 395.011719 50.710938 380.890625 41.917969 381.050781 25.589844 C 381.207031 18.996094 387.636719 12.246094 395.011719 12.089844 C 403.324219 11.933594 406.777344 17.113281 410.070312 23.078125 C 413.367188 17.742188 416.347656 12.558594 425.132812 12.402344 C 426.386719 12.402344 426.855469 12.558594 429.835938 13.1875 Z M 429.835938 13.34375 "/>
<path style=" stroke:none;fill-rule:evenodd;fill:rgb(92.941176%,40%,22.352941%);fill-opacity:1;" d="M 427.484375 10.832031 L 427.484375 3.453125 L 364.421875 3.453125 L 364.421875 66.410156 L 427.328125 66.410156 L 427.328125 43.488281 C 422.621094 48.984375 414.621094 53.695312 408.03125 58.71875 C 392.65625 48.199219 378.539062 39.40625 378.695312 23.078125 C 378.851562 16.484375 385.285156 9.734375 392.65625 9.578125 C 400.972656 9.421875 404.421875 14.601562 407.71875 20.566406 C 411.011719 15.230469 413.992188 10.046875 422.777344 9.890625 C 424.03125 9.890625 424.503906 10.046875 427.484375 10.675781 Z M 427.484375 10.832031 "/>
<path style=" stroke:none;fill-rule:evenodd;fill:rgb(20.784314%,20.784314%,20.784314%);fill-opacity:1;" d="M 436.113281 68.609375 L 435.957031 5.652344 L 499.019531 5.808594 L 499.175781 68.609375 L 453.527344 68.609375 L 478.9375 60.757812 L 491.332031 22.136719 L 452.425781 34.855469 L 440.820312 68.453125 Z M 436.113281 68.609375 "/>
<path style=" stroke:none;fill-rule:evenodd;fill:rgb(0%,63.921569%,89.411765%);fill-opacity:1;" d="M 433.757812 66.253906 L 433.601562 3.296875 L 496.667969 3.453125 L 496.824219 66.253906 L 451.171875 66.253906 L 476.585938 58.402344 L 488.980469 19.78125 L 450.074219 32.5 L 438.464844 66.097656 Z M 433.757812 66.253906 "/>
<path style=" stroke:none;fill-rule:evenodd;fill:rgb(20.784314%,20.784314%,20.784314%);fill-opacity:1;" d="M 435.957031 137.53125 L 455.25 137.53125 L 455.40625 119.476562 L 463.722656 87.292969 L 464.191406 86.820312 L 464.664062 87.292969 L 472.507812 117.277344 L 473.292969 118.222656 L 474.234375 117.277344 L 481.292969 87.605469 L 481.921875 86.820312 L 482.546875 87.449219 L 490.863281 119.320312 L 491.019531 137.375 L 499.019531 137.375 L 499.019531 74.730469 L 435.957031 74.730469 Z M 435.957031 137.53125 "/>
<path style=" stroke:none;fill-rule:evenodd;fill:rgb(100%,83.529412%,15.294118%);fill-opacity:1;" d="M 433.757812 135.175781 L 453.054688 135.175781 L 453.210938 117.121094 L 461.527344 84.9375 L 461.996094 84.464844 L 462.46875 84.9375 L 470.3125 114.925781 L 471.09375 115.867188 L 472.035156 114.925781 L 479.097656 85.25 L 479.722656 84.464844 L 480.351562 85.09375 L 488.664062 116.964844 L 488.824219 135.019531 L 496.824219 135.019531 L 496.824219 72.378906 L 433.757812 72.378906 Z M 433.757812 135.175781 "/>
<path style=" stroke:none;fill-rule:evenodd;fill:rgb(20.784314%,20.784314%,20.784314%);fill-opacity:1;" d="M 366.617188 74.730469 L 429.523438 74.730469 L 429.523438 137.6875 L 366.617188 137.6875 L 366.617188 132.980469 L 406.148438 91.058594 L 404.894531 90.589844 L 374.773438 117.59375 C 372.578125 114.925781 370.226562 112.726562 369.753906 108.171875 C 368.8125 99.695312 371.792969 92.316406 381.675781 87.449219 C 391.246094 82.738281 405.363281 84.464844 417.914062 84.152344 C 416.816406 87.605469 416.03125 89.960938 415.5625 92.316406 C 412.265625 109.429688 412.425781 108.800781 410.699219 114.140625 C 407.5625 123.246094 401.441406 128.113281 393.757812 128.269531 C 388.894531 128.269531 383.714844 127.171875 374.773438 117.4375 L 366.617188 122.617188 Z M 366.617188 74.730469 "/>
<path style=" stroke:none;fill-rule:evenodd;fill:rgb(45.098039%,75.294118%,43.137255%);fill-opacity:1;" d="M 364.265625 72.21875 L 427.171875 72.21875 L 427.171875 135.175781 L 364.265625 135.175781 L 364.265625 130.46875 L 405.363281 90.589844 L 404.109375 90.117188 L 372.421875 115.082031 C 370.226562 112.410156 367.871094 110.214844 367.402344 105.660156 C 366.460938 97.183594 369.441406 89.804688 379.324219 84.9375 C 388.894531 80.226562 403.011719 81.953125 415.5625 81.640625 C 414.464844 85.09375 413.679688 87.449219 413.207031 89.804688 C 409.914062 106.917969 410.070312 106.289062 408.34375 111.628906 C 405.207031 120.734375 399.089844 125.601562 391.402344 125.757812 C 386.539062 125.757812 381.363281 124.65625 372.421875 114.925781 L 364.265625 120.105469 Z M 364.265625 72.21875 "/>
</g>
</svg>
